<svg version="1.2" xmlns="http://www.w3.org/2000/svg" viewBox="0 0 333 333" width="500" height="500">
	<style>
		.s0 { fill: #333333 } 
		.s1 { fill: #1a1a1a } 
	</style>
	<g>
		<g>
			<g>
				<g>
					<path class="s0" d="m196.88 188.92v-28.34h-56.68v28.34h-16.23v-90.74h16.23v22.17c0.91-0.91 1.83-1.6 2.74-2.51 6.4-5.03 15.31-8.23 24.91-8.23 9.83 0 18.75 3.2 24.92 8.23 1.37 1.14 2.74 2.51 4.11 3.89v-23.55h16.23v90.74zm0-40.91h-56.68v3.89h56.68zm-15.54-20.8c-3.66-2.75-8-4.57-13.49-4.57-5.25 0-10.05 1.6-13.71 4.57-2.52 2.05-4.34 4.8-5.26 8h37.49c-0.46-3.2-2.29-5.95-5.03-8z"/>
				</g>
			</g>
			<g>
				<path class="s1" d="m126.94 202.41l-2.74 0.23c0 0.46-0.23 1.83-0.23 2.97v10.06c0 1.14 0.23 2.51 0.23 2.97l3.2 0.23-0.23 1.6c0 0-2.29-0.23-5.03-0.23-0.69 0-4.11 0.23-4.11 0.23l-0.23-1.37 2.74-0.46c0-0.46 0.23-1.6 0.23-2.06v-5.26h-11.43v4.35c0 1.14 0.23 2.51 0.23 2.97l3.2 0.23-0.23 1.6c0 0-2.29-0.23-5.03-0.23-0.68 0-4.11 0.23-4.11 0.23l-0.23-1.37 2.74-0.46c0-0.46 0.23-1.6 0.23-2.06v-11.88c0-0.46-0.23-1.83-0.23-2.06l-2.74-0.23 0.23-1.37c0 0 3.2 0.23 3.88 0.23 2.75 0 4.8-0.23 4.8-0.23l0.23 1.6-2.74 0.23c0 0.45-0.23 1.83-0.23 2.97v4.34l11.43-0.23v-5.03c0-0.45-0.23-1.82-0.23-2.05l-2.74-0.23 0.23-1.37c0 0 3.2 0.23 3.88 0.23 2.74 0 4.8-0.23 4.8-0.23z"/>
				<path class="s1" d="m142.03 220.47c-7.55 0-11.2-4.12-11.2-10.06 0-5.94 3.88-10.06 11.2-10.06 7.54 0 11.2 4.12 11.2 10.06 0 6.17-3.89 10.06-11.2 10.06zm0-1.37c5.02 0 7.54-3.89 7.54-8.69 0-4.8-2.52-8.69-7.54-8.69-5.03 0-7.55 3.89-7.55 8.69 0 4.8 2.29 8.69 7.55 8.69z"/>
				<path class="s1" d="m172.65 205.15c0-0.45-0.22-1.37-0.45-1.6 0-0.23-0.23-0.68-0.69-0.91-0.68 0-1.83-0.23-2.74-0.23h-2.29c0 0.46-0.23 2.06-0.23 2.97v10.06c0 1.14 0.23 2.51 0.23 2.97l2.97 0.23-0.22 1.6c0 0-2.29-0.23-5.03-0.23-0.69 0-4.12 0.23-4.12 0.23l-0.23-1.37 2.75-0.46c0-0.46 0.23-1.6 0.23-2.06v-11.88c0-0.46-0.23-1.6-0.23-2.29h-2.06c-0.91 0-2.06 0-2.74 0.23-0.23 0.46-0.69 0.69-0.69 0.91-0.23 0.46-0.23 1.38-0.46 1.6l-2.05-0.22 0.23-3.89 0.68-0.46c0 0 3.2 0.23 3.89 0.23h10.05c0.69 0 3.89-0.23 3.89-0.23l0.69 0.46 0.22 3.89z"/>
				<path class="s1" d="m177.45 200.81c0 0 3.2 0.23 3.89 0.23h7.77c0.69 0 3.89-0.23 3.89-0.23l0.68 0.46 0.23 3.65-2.06 0.23c0-0.45-0.22-1.14-0.45-1.37 0-0.23-0.46-0.68-0.69-0.91-0.68 0-1.83-0.23-2.74-0.23h-4.57c0 0.68-0.23 2.06-0.23 2.97v3.89q1.03 0 1.37 0h2.51c0.69 0 2.06-0.23 2.06-0.23l0.23-1.83 1.6 0.23c0 0 0 1.83 0 2.28 0 1.37 0 2.97 0 2.97l-1.6 0.23-0.23-1.83c0 0-2.06-0.22-2.74-0.22h-1.83c-0.23 0-0.91 0-1.37 0v4.57c0 1.14 0.23 2.51 0.23 2.97h5.03c1.14 0 2.28-0.23 2.97-0.23 0.23-0.46 0.68-0.69 0.68-0.91 0-0.46 0.46-1.38 0.46-1.83l1.83 0.23-0.46 4.11-0.68 0.46c0 0-3.2 0-3.89 0h-8.23c-0.68 0-4.11 0.23-4.11 0.23l-0.23-1.38 2.74-0.45c0-0.46 0.23-1.6 0.23-2.06v-11.89c0-0.45-0.23-1.82-0.23-2.05l-2.74-0.23z"/>
				<path class="s1" d="m207.17 202.41l-2.74 0.23c0 0.46-0.23 1.83-0.23 2.97v10.06c0 1.14 0.23 2.51 0.23 2.97h4.11c1.14 0 2.29-0.23 2.97-0.23 0.23-0.46 0.69-0.91 0.69-0.91 0.23-0.46 0.45-1.38 0.45-1.83l1.83 0.23-0.45 4.11-0.69 0.46c0 0-3.2 0-3.89 0h-7.31c-0.69 0-4.11 0.23-4.11 0.23l-0.23-1.38 2.74-0.45c0-0.46 0.23-1.6 0.23-2.06v-11.89c0-0.45-0.23-1.82-0.23-2.05l-2.74-0.23 0.23-1.37c0 0 3.2 0.23 3.88 0.23 2.74 0 4.8-0.23 4.8-0.23z"/>
				<path class="s1" d="m220.42 214.98v1.37c0 0.23 0.23 1.15 0.46 1.83 1.14 0.46 2.74 0.69 4.34 0.69 2.75 0 4.58-1.15 4.58-3.43 0-4.57-11.66-4.12-11.66-10.06 0-3.2 3.2-5.03 7.54-5.03 2.29 0 4.8 0.46 6.86 0.92l-0.46 4.11-2.06-0.23v-1.14c0-0.23-0.22-0.91-0.45-1.6-1.37-0.46-2.52-0.69-4.12-0.69-2.05 0-3.88 0.92-3.88 2.98 0 4.34 11.88 3.88 11.88 10.28 0 3.66-3.65 5.49-8.23 5.49-4.57 0-7.54-1.37-7.54-1.37l0.46-4.12z"/>
			</g>
			<g>
				<g>
					<path class="s0" d="m157.11 227.32l2.06 6.4h6.86l-5.49 4.12 2.06 6.4-5.49-3.89-5.71 3.89 2.28-6.4-5.71-4.12h6.86z"/>
				</g>
				<g>
					<path class="s0" d="m179.97 227.32l2.06 6.4h6.85l-5.48 4.12 2.05 6.4-5.48-3.89-5.49 3.89 2.06-6.4-5.49-4.12h6.86z"/>
				</g>
				<g>
					<path class="s0" d="m203.05 227.32l2.06 6.4h6.86l-5.49 4.12 2.06 6.4-5.49-3.89-5.71 3.89 2.29-6.4-5.72-4.12h6.86z"/>
				</g>
				<g>
					<path class="s0" d="m134.03 227.32l2.05 6.4h6.86l-5.49 4.12 2.06 6.4-5.48-3.89-5.49 3.89 2.06-6.4-5.49-4.12h6.86z"/>
				</g>
			</g>
			<path class="s0" d="m267.05 169.95c0-55.08-45.03-100.11-100.11-100.11-55.09 0-100.11 45.03-100.11 100.11 0 55.09 45.02 100.12 100.11 100.12 55.08-0.23 100.11-45.03 100.11-100.12zm38.4-16.45v24.45c-7.31-6.63-15.31-9.14-22.17-4.8-13.03 8.23-6.17 25.6 8 23.55-0.23 9.37-2.51 16.45-6.86 21.48-5.48-5.94-16.45-5.03-20.34 5.26-3.66 10.51 8 18.51 13.94 16.91-0.68 1.6-0.91 3.43-1.37 5.49-2.05 7.54-7.08 8.68-13.03 3.2-3.65-3.43-6.4-6.4-11.2-5.26-8.68 1.83-10.05 13.72 1.15 17.6l-5.03 5.72c-4.12-4.35-4.57-10.98-16.92-10.06 27.2-19.43 45.26-51.2 45.26-87.09 0-58.74-48-106.74-106.74-106.74-0.91 0-2.06 0-2.97 0-58.74 0-106.74 48-106.74 106.74 0 35.89 17.82 67.66 45.25 87.09-12.34-0.92-12.8 5.71-16.91 10.06l-5.03-5.72c11.2-3.88 9.83-15.77 1.14-17.6-4.57-0.91-7.54 2.06-11.2 5.26-5.94 5.71-10.97 4.34-13.03-3.2-0.68-2.29-0.68-4.12-1.37-5.49 5.95 1.6 17.83-6.4 13.95-16.91-3.66-10.52-14.86-11.2-20.35-5.26-4.57-5.03-6.85-12.11-6.85-21.48 14.17 2.05 21.25-15.32 8-23.55-6.86-4.34-14.86-1.83-22.18 4.8v-24.45c12.12 4.34 23.32 3.65 29.26-6.63 5.03-8.69 4.34-16.46-2.06-21.72-2.05-9.14 6.18-23.77 17.38-37.02 4.34 8.22 13.25 10.05 19.2 0.68 3.65-5.94-0.69-11.2-8-19.2-4.35-4.8 9.6-10.74 8-4.8-3.66 13.03 17.14 20.12 17.6 2.29 9.37 8.23 19.65 0.23 15.54-9.83-3.43-8-2.06-13.26 4.57-16.23-4.57 10.06-1.83 16.91 4.11 19.66 6.63 3.2 10.75-5.49 4.12-11.2-8.69-7.55 2.74-21.26 12.11-10.97-10.28 6.17-2.05 24.91 8.92 22.62 2.05-6.85 10.74-6.85 12.57 0 10.97 2.29 19.2-16.45 8.91-22.62 9.37-10.29 20.8 3.42 12.12 10.97-6.63 5.71-2.52 14.4 4.11 11.2 5.94-2.75 8.92-9.83 4.12-19.66 6.62 2.97 8 8.23 4.57 16.23-4.12 9.83 6.17 18.06 15.54 9.83 0.46 18.05 21.26 10.74 17.6-2.29-1.6-5.94 12.34 0 8 4.8-7.32 8-11.66 13.26-8 19.2 5.94 9.37 14.86 7.54 19.2-0.68 11.2 13.25 19.43 27.65 17.37 37.02-6.4 5.26-7.09 13.03-2.06 21.72 5.49 10.28 16.69 10.97 28.8 6.63zm-138.97-128c0-1.37 1.15-2.29 2.29-2.29 1.37 0 2.28 1.14 2.28 2.29 0 1.37-1.14 2.28-2.28 2.28-1.14 0-2.29-1.14-2.29-2.28zm-2.51 15.77c0-5.72 2.28-10.52 5.03-10.52 2.74 0 5.03 4.8 5.03 10.52 0 5.71-2.29 10.51-5.03 10.51-2.75 0-5.03-4.57-5.03-10.51zm121.6 188.8c6.4-11.2 21.03-32.23 9.37-43.89-1.14 1.83-3.2 2.97-5.72 2.97-3.65 0-6.85-2.97-6.85-6.85 0-4.35 4.8-7.55 8.45-6.63 25.6 6.4 7.32 43.2-5.25 54.4zm-39.32-152.23c20.57-15.54 37.26 21.26 37.95 37.71-4.8-11.88-11.43-35.88-27.66-34.51 0.68 2.06 0.23 4.34-1.14 6.17-2.29 2.74-6.63 3.2-9.38 0.92-3.2-2.52-2.74-8 0.23-10.29zm48.69 64.91c-2.06-1.14-3.43-3.42-3.43-5.94 0-3.66 2.97-6.63 6.63-6.63 3.66 0 5.94 2.97 6.63 6.63 2.74 15.54-23.77 22.4-29.49 2.06 8 11.43 14.4 11.43 19.66 3.88zm-74.74-82.74c10.28-3.43 17.14 2.52 17.37 9.6 0.23 2.52-2.06 4.8-4.8 4.8-2.75 0-5.72-2.28-4.8-4.8 2.97-6.63-0.23-9.14-7.77-9.6zm-53.26 216.69v13.71c0 15.09-24 15.54-19.89 2.97 2.06-6.4 6.4-5.71 7.55-0.46 0.91 4.8 15.08-6.62 2.05-9.6-9.14-2.05-22.62 8-35.88 10.75-18.29 3.88-30.4-5.72-30.86-20.12-0.46-11.2 10.52-18.05 22.63-10.51 5.49 3.2 5.94 11.43-4.34 11.43 2.51-8.46-6.63-7.32-10.29-3.2-8 8.45 8.69 23.08 32.92 15.77 10.74-3.2 21.48-13.49 36.11-10.74zm0-11.89c-52.34 0-94.86-42.51-94.86-94.86 0-52.34 42.52-94.85 94.86-94.85 52.34 0 94.86 42.51 94.86 94.85 0 52.35-42.52 94.86-94.86 94.86zm80 9.37c-0.46 14.4-12.57 24-30.86 20.12-13.25-2.98-26.74-13.03-35.88-10.75-13.03 2.97 1.14 14.4 2.05 9.6 1.15-5.25 5.49-5.94 7.55 0.46 4.11 12.57-19.89 12.11-19.89-2.97v-13.72c14.63-2.74 25.37 7.55 36.12 10.98 24.22 7.31 40.91-7.32 32.91-15.78-3.66-4.11-12.8-5.25-10.29 3.2-10.28 0-9.83-8.22-4.34-11.42 12.11-7.78 22.86-0.92 22.63 10.28zm-62.4 1.14c12.57-2.28 23.31-5.48 31.77-10.05 0.46 11.43 7.77 15.31 18.06 14.4-17.83 15.31-35.2 0.23-49.83-4.35zm-63.77-10.05c8.23 4.57 19.2 7.77 31.77 10.05-14.86 4.58-32 19.89-49.6 4.35 10.06 0.91 17.37-2.97 17.83-14.4zm-69.26-35.2c-12.57-11.2-30.86-48-5.48-54.4 3.65-0.92 8.22 2.28 8.45 6.63 0 3.65-2.97 6.85-6.85 6.85-2.29 0-4.35-1.14-5.72-2.97-11.43 11.89 3.43 32.69 9.6 43.89zm1.14-114.52c0.69-16.68 17.38-53.25 37.95-37.71 2.97 2.29 3.43 7.77 0.23 10.51-2.75 2.29-7.09 1.83-9.38-0.91-1.37-1.83-1.82-4.11-1.14-6.17-16.23-1.6-22.86 22.63-27.66 34.28zm46.63-45.94c0.46-7.08 7.32-13.03 17.6-9.6-7.54 0.46-10.74 2.97-8 9.6 0.92 2.52-2.05 4.8-4.8 4.8-2.74-0.23-5.03-2.28-4.8-4.8zm-67.2 67.2c0.69-3.66 2.97-6.63 6.63-6.63 3.66 0 6.63 2.97 6.63 6.63 0 2.52-1.37 4.8-3.43 5.94 5.26 7.77 11.66 7.55 19.66-3.65-5.72 20.11-32.23 13.25-29.49-2.29z"/>
		</g>
	</g>
</svg>